#!OML:ASF F:\VICON\USERDATA\INSTALL\rory3\rory3.ASF
:FULLY-SPECIFIED
:DEGREES
799
root -1.11401 26.4396 -1.62581 -0.398999 6.57403 4.33088
lowerback 2.09341 -0.466722 -4.92386
upperback 1.25942 -0.704799 1.30937
thorax 0.198637 -0.385191 4.12656
lowerneck -10.9399 2.58995 -9.62058
upperneck 43.5863 7.60863 -0.580063
head 17.8004 1.50396 2.78491
rclavicle -1.78906e-015 -3.97569e-015
rhumerus -34.1474 -10.5876 -75.6486
rradius 36.4349
rwrist 20.3714
rhand -20.4387 1.92395
rfingers 7.12502
rthumb 5.91628 -27.9734
lclavicle -1.78906e-015 -3.97569e-015
lhumerus -36.2438 16.558 77.0204
lradius 32.2115
lwrist -5.37264
lhand -13.1718 27.6521
lfingers 7.12502
lthumb 12.9276 57.2316
rfemur -15.031 -0.853877 19.774
rtibia 20.0815
rfoot 11.2429 -19.8461
rtoes 21.1922
lfemur -15.5176 5.82055 -27.2995
ltibia 71.4656
lfoot -34.6225 -4.09237
ltoes -22.5073
800
root -1.11954 26.3625 -1.54019 -0.406459 6.42355 4.4448
lowerback 1.92449 -0.44477 -4.96687
upperback 1.21954 -0.668546 1.23413
thorax 0.247913 -0.367496 4.07069
lowerneck -10.9831 2.64257 -9.53833
upperneck 43.5583 7.68588 -0.616707
head 17.7956 1.54405 2.76686
rclavicle 8.77137e-015 4.77083e-015
rhumerus -34.2195 -10.5576 -75.779
rradius 36.3635
rwrist 20.4469
rhand -20.2318 1.97658
rfingers 7.12502
rthumb 6.11606 -27.9151
lclavicle 8.77137e-015 4.77083e-015
lhumerus -36.3659 16.8296 76.8356
lradius 31.8537
lwrist -5.66687
lhand -13.1907 27.5479
lfingers 7.12502
lthumb 12.9094 57.1287
rfemur -14.3717 -1.14446 19.9082
rtibia 19.8701
rfoot 10.7144 -17.5296
rtoes 20.5501
lfemur -15.6926 6.22349 -27.2422
ltibia 72.6951
lfoot -34.6152 -4.35262
ltoes -22.9697
801
root -1.12432 26.2907 -1.45196 -0.414476 6.19596 4.61564
lowerback 1.73711 -0.365795 -5.04013
upperback 1.19788 -0.55508 1.14198
thorax 0.318307 -0.312236 4.01334
lowerneck -11.039 2.62363 -9.48003
upperneck 43.5767 7.6335 -0.579306
head 17.8223 1.53445 2.76828
rclavicle 7.23079e-015 0
rhumerus -34.3281 -10.6125 -75.8609
rradius 36.3555
rwrist 20.442
rhand -20.5283 1.9396
rfingers 7.12502
rthumb 5.82976 -27.9602
lclavicle 7.23079e-015 0
lhumerus -36.4129 16.9706 76.6944
lradius 31.4919
lwrist -6.08124
lhand -12.8973 27.6961
lfingers 7.12502
lthumb 13.1922 57.2587
rfemur -13.7873 -1.2954 19.9501
rtibia 19.7444
rfoot 9.65583 -15.1612
rtoes 17.2939
lfemur -15.8847 6.72747 -27.2356
ltibia 73.9455
lfoot -34.4609 -4.72709
ltoes -23.1794
802
root -1.13127 26.2254 -1.36893 -0.354119 6.07037 4.71186
lowerback 1.59587 -0.333168 -5.07897
upperback 1.10811 -0.50646 1.11194
thorax 0.29994 -0.285593 4.00283
lowerneck -11.0316 2.64114 -9.3916
upperneck 43.6262 7.6433 -0.588664
head 17.853 1.54864 2.75171
rclavicle 1.63997e-015 -6.36111e-015
rhumerus -34.5309 -10.6281 -75.8811
rradius 36.4348
rwrist 20.6846
rhand -20.6784 1.66647
rfingers 7.12502
rthumb 5.68485 -28.2373
lclavicle 1.63997e-015 -6.36111e-015
lhumerus -36.5358 17.0111 76.6369
lradius 31.2075
lwrist -6.23204
lhand -12.6376 27.762
lfingers 7.12502
lthumb 13.4426 57.3082
rfemur -13.3495 -1.3191 20.0337
rtibia 19.6618
rfoot 7.89311 -14.0926
rtoes 16.818
lfemur -16.2529 7.14453 -27.156
ltibia 75.2736
lfoot -34.1485 -4.9357
ltoes -24.081
803
root -1.1419 26.1515 -1.29264 -0.261211 6.02303 4.75163
lowerback 1.51888 -0.358679 -5.1345
upperback 0.958654 -0.54012 1.13087
thorax 0.193563 -0.296627 4.05428
lowerneck -10.8697 2.71385 -9.37301
upperneck 43.5934 7.72872 -0.604318
head 17.7867 1.59101 2.74762
rclavicle 6.23687e-015 -1.59028e-015
rhumerus -34.7134 -10.504 -75.9321
rradius 36.4288
rwrist 20.7863
rhand -20.6035 1.52751
rfingers 7.12502
rthumb 5.75719 -28.3743
lclavicle 6.23687e-015 -1.59028e-015
lhumerus -36.8506 17.0414 76.586
lradius 31.0796
lwrist -5.94626
lhand -12.5863 27.5868
lfingers 7.12502
lthumb 13.492 57.1298
rfemur -12.9269 -1.31095 20.1878
rtibia 19.5916
rfoot 6.3644 -12.9572
rtoes 17.5815
lfemur -16.8082 7.52542 -26.9781
ltibia 76.7779
lfoot -33.6675 -5.26182
ltoes -25.1439
804
root -1.15293 26.0728 -1.2148 -0.273878 5.93473 4.6455
lowerback 1.50281 -0.366072 -5.04659
upperback 0.847719 -0.550215 1.18652
thorax 0.0890024 -0.296188 4.06284
lowerneck -10.8129 2.74277 -9.40676
upperneck 43.6643 7.78228 -0.602892
head 17.8106 1.604 2.76263
rclavicle 1.56791e-014 8.74653e-015
rhumerus -34.8185 -10.3852 -75.9953
rradius 36.3123
rwrist 20.5766
rhand -20.8618 1.71114
rfingers 7.12502
rthumb 5.50777 -28.1973
lclavicle 1.56791e-014 8.74653e-015
lhumerus -37.124 17.0283 76.5497
lradius 30.8862
lwrist -5.75462
lhand -12.7294 27.3553
lfingers 7.12502
lthumb 13.3541 56.9074
rfemur -12.4067 -1.34986 20.5035
rtibia 19.5163
rfoot 4.89047 -11.7875
rtoes 18.5908
lfemur -17.3087 7.96688 -26.5916
ltibia 78.4109
lfoot -33.0728 -5.7132
ltoes -25.9401
805
root -1.16436 26.0018 -1.13817 -0.356479 5.8444 4.39374
lowerback 1.55843 -0.364747 -4.80021
upperback 0.810189 -0.548576 1.28311
thorax 0.0173129 -0.292035 4.02438
lowerneck -11.037 2.7121 -9.59735
upperneck 43.8242 7.77102 -0.436935
head 17.9467 1.57366 2.88409
rclavicle -1.20265e-014 1.03368e-014
rhumerus -34.8071 -10.2877 -76.0311
rradius 36.2274
rwrist 20.4002
rhand -21.0013 1.76339
rfingers 7.12502
rthumb 5.3731 -28.1485
lclavicle -1.20265e-014 1.03368e-014
lhumerus -37.1632 17.3375 76.4388
lradius 30.4835
lwrist -6.15235
lhand -12.6591 27.343
lfingers 7.12502
lthumb 13.4218 56.8906
rfemur -11.9056 -1.38896 20.9619
rtibia 19.4514
rfoot 3.60833 -10.734
rtoes 17.6937
lfemur -17.8596 8.46915 -26.0095
ltibia 80.1383
lfoot -32.2818 -6.34965
ltoes -26.6211
806
root -1.17403 25.9302 -1.06735 -0.367565 5.73669 4.19654
lowerback 1.62236 -0.352922 -4.57051
upperback 0.761429 -0.53322 1.34993
thorax -0.0720764 -0.2805 3.96439
lowerneck -11.2287 2.69693 -9.75733
upperneck 43.8857 7.749 -0.249824
head 18.0131 1.55469 3.00422
rclavicle -2.75814e-015 -1.03368e-014
rhumerus -34.736 -10.2646 -76.0729
rradius 36.134
rwrist 20.4734
rhand -21.2437 1.48058
rfingers 7.12502
rthumb 5.13902 -28.4371
lclavicle -2.75814e-015 -1.03368e-014
lhumerus -37.1531 17.6845 76.3282
lradius 30.0675
lwrist -6.49624
lhand -12.5239 27.1452
lfingers 7.12502
lthumb 13.5521 56.6842
rfemur -11.5443 -1.32899 21.3246
rtibia 19.3987
rfoot 2.48043 -9.84147
rtoes 16.8265
lfemur -18.5924 8.95299 -25.5227
ltibia 81.9301
lfoot -31.2033 -7.14722
ltoes -26.8704
807
root -1.18297 25.8544 -1.00259 -0.388898 5.58363 3.96821
lowerback 1.78528 -0.3311 -4.28216
upperback 0.669103 -0.507781 1.39594
thorax -0.263405 -0.260682 3.85052
lowerneck -11.232 2.75278 -9.59308
upperneck 43.8489 7.83755 -0.377572
head 18.003 1.60173 2.92981
rclavicle -8.94531e-016 7.95139e-016
rhumerus -34.7263 -10.3161 -76.1554
rradius 36.0011
rwrist 20.6375
rhand -21.1758 1.31022
rfingers 7.12502
rthumb 5.20462 -28.6059
lclavicle -8.94531e-016 7.95139e-016
lhumerus -37.205 17.968 76.187
lradius 29.7124
lwrist -6.74847
lhand -12.5948 27.279
lfingers 7.12502
lthumb 13.4838 56.8225
rfemur -11.2366 -1.21837 21.7124
rtibia 19.3666
rfoot 1.37426 -9.02937
rtoes 17.6761
lfemur -19.413 9.50778 -24.9888
ltibia 83.7945
lfoot -29.7798 -7.95378
ltoes -27.0585
808
root -1.19061 25.7792 -0.944019 -0.500486 5.44789 3.6962
lowerback 2.10592 -0.291974 -3.96878
upperback 0.61526 -0.462526 1.47577
thorax -0.505032 -0.231171 3.75806
lowerneck -11.2012 2.76282 -9.42987
upperneck 43.7212 7.88361 -0.607525
head 17.9422 1.62421 2.79734
rclavicle -4.39811e-015 1.19271e-014
rhumerus -34.7463 -10.4269 -76.1678
rradius 35.9705
rwrist 20.7186
rhand -20.933 1.54945
rfingers 7.12502
rthumb 5.43905 -28.3607
lclavicle -4.39811e-015 1.19271e-014
lhumerus -37.1661 18.3142 76.0532
lradius 29.2679
lwrist -7.09113
lhand -12.5834 27.1707
lfingers 7.12502
lthumb 13.4947 56.7135
rfemur -10.935 -1.1568 22.1468
rtibia 19.4539
rfoot 0.34655 -8.34151
rtoes 18.8671
lfemur -20.2646 9.96685 -24.3825
ltibia 85.731
lfoot -27.8716 -9.01685
ltoes -26.7366
809
root -1.19708 25.713 -0.886728 -0.633221 5.34714 3.33712
lowerback 2.4087 -0.271262 -3.56638
upperback 0.601 -0.435598 1.58066
thorax -0.694344 -0.213497 3.64102
lowerneck -11.2587 2.73162 -9.45812
upperneck 43.6375 7.8238 -0.573189
head 17.9053 1.60353 2.80757
rclavicle 1.83876e-015 3.97569e-015
rhumerus -34.7706 -10.4796 -76.1888
rradius 36.1129
rwrist 20.7066
rhand -21.1249 1.53638
rfingers 7.12502
rthumb 5.25373 -28.3785
lclavicle 1.83876e-015 3.97569e-015
lhumerus -37.0832 18.7565 75.9157
lradius 28.836
lwrist -7.43421
lhand -12.5899 26.9417
lfingers 7.12502
lthumb 13.4885 56.4849
rfemur -10.692 -1.07783 22.6575
rtibia 19.6398
rfoot -0.757202 -7.89885
rtoes 19.2784
lfemur -21.1935 10.3177 -23.6738
ltibia 87.6826
lfoot -25.7783 -10.1207
ltoes -26.0665
